<svg width="0" height="0" class="hidden">
  <symbol fill="none" xmlns="http://www.w3.org/2000/svg" viewBox="0 0 20 20" id="facebook">
    <path d="M17.0703 0H2.92969C1.31439 0 0 1.31439 0 2.92969V17.0703C0 18.6856 1.31439 20 2.92969 20H8.82812V12.9297H6.48438V9.41406H8.82812V7.03125C8.82812 5.09262 10.4051 3.51562 12.3438 3.51562H15.8984V7.03125H12.3438V9.41406H15.8984L15.3125 12.9297H12.3438V20H17.0703C18.6856 20 20 18.6856 20 17.0703V2.92969C20 1.31439 18.6856 0 17.0703 0Z" fill="currentColor"></path>
  </symbol>
  <symbol fill="none" xmlns="http://www.w3.org/2000/svg" viewBox="0 0 20 20" id="insta">
    <path d="M17.0703 0H2.92969C1.31439 0 0 1.31439 0 2.92969V17.0703C0 18.6856 1.31439 20 2.92969 20H17.0703C18.6856 20 20 18.6856 20 17.0703V2.92969C20 1.31439 18.6856 0 17.0703 0ZM10.0391 15.2344C7.1312 15.2344 4.76562 12.8688 4.76562 9.96094C4.76562 7.05307 7.1312 4.6875 10.0391 4.6875C12.9469 4.6875 15.3125 7.05307 15.3125 9.96094C15.3125 12.8688 12.9469 15.2344 10.0391 15.2344ZM15.8984 5.85938C14.9292 5.85938 14.1406 5.0708 14.1406 4.10156C14.1406 3.13232 14.9292 2.34375 15.8984 2.34375C16.8677 2.34375 17.6562 3.13232 17.6562 4.10156C17.6562 5.0708 16.8677 5.85938 15.8984 5.85938Z" fill="currentColor"></path>
  </symbol>
  <symbol fill="none" xmlns="http://www.w3.org/2000/svg" viewBox="0 0 20 20" id="phone">
    <path d="M19.4557 14.678L16.6646 11.8869C15.6678 10.8901 13.9732 11.2889 13.5745 12.5847C13.2754 13.4819 12.2786 13.9803 11.3815 13.7809C9.3879 13.2825 6.69652 10.6908 6.19812 8.59746C5.89907 7.70029 6.49716 6.70349 7.39428 6.40448C8.69013 6.00576 9.08886 4.31119 8.09205 3.31438L5.30099 0.523324C4.50354 -0.174441 3.30738 -0.174441 2.60961 0.523324L0.715678 2.41726C-1.17826 4.41087 0.915039 9.69395 5.60003 14.3789C10.285 19.0639 15.5681 21.2569 17.5617 19.2633L19.4557 17.3694C20.1535 16.5719 20.1535 15.3757 19.4557 14.678Z" fill="currentColor"></path>
  </symbol>
  <symbol fill="none" xmlns="http://www.w3.org/2000/svg" viewBox="0 0 20 18" id="telegram">
    <path d="M7.84753 11.6508L7.51669 16.3041C7.99003 16.3041 8.19503 16.1008 8.44086 15.8566L10.66 13.7358L15.2584 17.1033C16.1017 17.5733 16.6959 17.3258 16.9234 16.3274L19.9417 2.1841L19.9425 2.18326C20.21 0.936598 19.4917 0.449098 18.67 0.754931L0.92836 7.54743C-0.282474 8.01743 -0.264141 8.69243 0.722526 8.99826L5.25836 10.4091L15.7942 3.8166C16.29 3.48826 16.7409 3.66993 16.37 3.99826L7.84753 11.6508Z" fill="currentColor"></path>
  </symbol>
  <symbol fill="none" xmlns="http://www.w3.org/2000/svg" viewBox="0 0 20 18" id="twitter">
    <path d="M7.4614 17.2049C6.59653 17.2049 5.70633 17.1349 4.81079 16.9945C3.23349 16.747 1.63681 15.9219 1.185 15.6749L0 15.027L1.28296 14.6051C2.68539 14.144 3.53851 13.8579 4.59457 13.4099C3.53714 12.8978 2.72217 11.9766 2.32986 10.7858L2.0314 9.87977L2.27615 9.91715C2.04407 9.68324 1.86081 9.44581 1.71875 9.2299C1.21353 8.46253 0.946045 7.52488 1.00296 6.72135L1.05911 5.93049L1.53259 6.1139C1.33286 5.7367 1.18851 5.33387 1.10367 4.91166C0.896912 3.882 1.06995 2.78809 1.59103 1.83152L2.00348 1.07438L2.55508 1.73692C4.29962 3.83256 6.50925 5.07569 9.13177 5.43961C9.02466 4.70124 9.10492 3.98866 9.37057 3.34992C9.67987 2.60621 10.2301 1.97556 10.9613 1.52604C11.7734 1.02692 12.7582 0.785073 13.7343 0.84504C14.7699 0.908669 15.7101 1.2967 16.4569 1.96793C16.8216 1.87318 17.0903 1.77201 17.4535 1.63529C17.672 1.55305 17.9198 1.45966 18.2298 1.35285L19.3724 0.959175L18.6273 3.08717C18.6765 3.08305 18.7271 3.07954 18.7801 3.07725L20.0002 3.02201L19.279 4.00758C19.2377 4.06403 19.2271 4.08006 19.2125 4.10218C19.1544 4.18977 19.082 4.29871 18.0922 5.62043C17.8444 5.95139 17.7206 6.38245 17.7437 6.83442C17.8314 8.55195 17.6207 10.1059 17.117 11.4529C16.6406 12.7274 15.9024 13.8208 14.9231 14.7029C13.7112 15.7942 12.166 16.5415 10.33 16.9235C9.42947 17.1109 8.46237 17.2049 7.4614 17.2049Z" fill="currentColor"></path>
  </symbol>
  <symbol xmlns="http://www.w3.org/2000/svg" viewBox="0 0 50 50" id="viber">
    <path d="M25,2C12.318,2,2,12.318,2,25c0,3.96,1.023,7.854,2.963,11.29L2.037,46.73c-0.096,0.343-0.003,0.711,0.245,0.966 C2.473,47.893,2.733,48,3,48c0.08,0,0.161-0.01,0.24-0.029l10.896-2.699C17.463,47.058,21.21,48,25,48c12.682,0,23-10.318,23-23 S37.682,2,25,2z M36.57,33.116c-0.492,1.362-2.852,2.605-3.986,2.772c-1.018,0.149-2.306,0.213-3.72-0.231 c-0.857-0.27-1.957-0.628-3.366-1.229c-5.923-2.526-9.791-8.415-10.087-8.804C15.116,25.235,13,22.463,13,19.594 s1.525-4.28,2.067-4.864c0.542-0.584,1.181-0.73,1.575-0.73s0.787,0.005,1.132,0.021c0.363,0.018,0.85-0.137,1.329,1.001 c0.492,1.168,1.673,4.037,1.819,4.33c0.148,0.292,0.246,0.633,0.05,1.022c-0.196,0.389-0.294,0.632-0.59,0.973 s-0.62,0.76-0.886,1.022c-0.296,0.291-0.603,0.606-0.259,1.19c0.344,0.584,1.529,2.493,3.285,4.039 c2.255,1.986,4.158,2.602,4.748,2.894c0.59,0.292,0.935,0.243,1.279-0.146c0.344-0.39,1.476-1.703,1.869-2.286 s0.787-0.487,1.329-0.292c0.542,0.194,3.445,1.604,4.035,1.896c0.59,0.292,0.984,0.438,1.132,0.681 C37.062,30.587,37.062,31.755,36.57,33.116z" fill="currentColor"></path>
  </symbol>
  <symbol xmlns="http://www.w3.org/2000/svg" viewBox="0 0 50 50" id="whatsapp">
    <path d="M25,2C12.318,2,2,12.318,2,25c0,3.96,1.023,7.854,2.963,11.29L2.037,46.73c-0.096,0.343-0.003,0.711,0.245,0.966 C2.473,47.893,2.733,48,3,48c0.08,0,0.161-0.01,0.24-0.029l10.896-2.699C17.463,47.058,21.21,48,25,48c12.682,0,23-10.318,23-23 S37.682,2,25,2z M36.57,33.116c-0.492,1.362-2.852,2.605-3.986,2.772c-1.018,0.149-2.306,0.213-3.72-0.231 c-0.857-0.27-1.957-0.628-3.366-1.229c-5.923-2.526-9.791-8.415-10.087-8.804C15.116,25.235,13,22.463,13,19.594 s1.525-4.28,2.067-4.864c0.542-0.584,1.181-0.73,1.575-0.73s0.787,0.005,1.132,0.021c0.363,0.018,0.85-0.137,1.329,1.001 c0.492,1.168,1.673,4.037,1.819,4.33c0.148,0.292,0.246,0.633,0.05,1.022c-0.196,0.389-0.294,0.632-0.59,0.973 s-0.62,0.76-0.886,1.022c-0.296,0.291-0.603,0.606-0.259,1.19c0.344,0.584,1.529,2.493,3.285,4.039 c2.255,1.986,4.158,2.602,4.748,2.894c0.59,0.292,0.935,0.243,1.279-0.146c0.344-0.39,1.476-1.703,1.869-2.286 s0.787-0.487,1.329-0.292c0.542,0.194,3.445,1.604,4.035,1.896c0.59,0.292,0.984,0.438,1.132,0.681 C37.062,30.587,37.062,31.755,36.57,33.116z" fill="currentColor"></path>
  </symbol>
  <svg width="0" height="0" class="hidden">
  <symbol version="1.1" xmlns="http://www.w3.org/2000/svg" viewBox="0 0 20 20" id="whatsapp-color-svgrepo-com">
    <g id="Icons" stroke="none" stroke-width="1" fill="none" fill-rule="evenodd">
      <g id="Color-" transform="translate(-700.000000, -360.000000)" fill="currentColor">
        <path d="M723.993033,360 C710.762252,360 700,370.765287 700,383.999801 C700,389.248451 701.692661,394.116025 704.570026,398.066947 L701.579605,406.983798 L710.804449,404.035539 C714.598605,406.546975 719.126434,408 724.006967,408 C737.237748,408 748,397.234315 748,384.000199 C748,370.765685 737.237748,360.000398 724.006967,360.000398 L723.993033,360.000398 L723.993033,360 Z M717.29285,372.190836 C716.827488,371.07628 716.474784,371.034071 715.769774,371.005401 C715.529728,370.991464 715.262214,370.977527 714.96564,370.977527 C714.04845,370.977527 713.089462,371.245514 712.511043,371.838033 C711.806033,372.557577 710.056843,374.23638 710.056843,377.679202 C710.056843,381.122023 712.567571,384.451756 712.905944,384.917648 C713.258648,385.382743 717.800808,392.55031 724.853297,395.471492 C730.368379,397.757149 732.00491,397.545307 733.260074,397.27732 C735.093658,396.882308 737.393002,395.527239 737.971421,393.891043 C738.54984,392.25405 738.54984,390.857171 738.380255,390.560912 C738.211068,390.264652 737.745308,390.095816 737.040298,389.742615 C736.335288,389.389811 732.90737,387.696673 732.25849,387.470894 C731.623543,387.231179 731.017259,387.315995 730.537963,387.99333 C729.860819,388.938653 729.198006,389.89831 728.661785,390.476494 C728.238619,390.928051 727.547144,390.984595 726.969123,390.744481 C726.193254,390.420348 724.021298,389.657798 721.340985,387.273388 C719.267356,385.42535 717.856938,383.125756 717.448104,382.434484 C717.038871,381.729275 717.405907,381.319529 717.729948,380.938852 C718.082653,380.501232 718.421026,380.191036 718.77373,379.781688 C719.126434,379.372738 719.323884,379.160897 719.549599,378.681068 C719.789645,378.215575 719.62006,377.735746 719.450874,377.382942 C719.281687,377.030139 717.871269,373.587317 717.29285,372.190836 Z" fill="currentColor" id="Whatsapp"></path>
      </g>
    </g>
  </symbol>

  <symbol xmlns="http://www.w3.org/2000/svg" viewBox="0 0 50 50" id="close">
    <path d="M 7.71875 6.28125 L 6.28125 7.71875 L 23.5625 25 L 6.28125 42.28125 L 7.71875 43.71875 L 25 26.4375 L 42.28125 43.71875 L 43.71875 42.28125 L 26.4375 25 L 43.71875 7.71875 L 42.28125 6.28125 L 25 23.5625 Z" fill="currentColor"></path>
  </symbol>

</svg>